#define battery_width 15
#define battery_height 13
static unsigned char battery_bits[] = {
   0x00, 0x00, 0x00, 0x00, 0x00, 0x00, 0xfe, 0x0f, 0xfe, 0x08, 0xfe, 0x38,
   0xfe, 0x38, 0xfe, 0x38, 0xfe, 0x08, 0xfe, 0x0f, 0x00, 0x00, 0x00, 0x00,
   0x00, 0x00 };
