#define clock_width 14
#define clock_height 14
static unsigned char clock_bits[] = {
   0x00, 0x00, 0xf8, 0x00, 0x8c, 0x01, 0x26, 0x03, 0x22, 0x02, 0xe2, 0x02,
   0x02, 0x02, 0x06, 0x03, 0x8c, 0x01, 0xf8, 0x00, 0x00, 0x00, 0x00, 0x00,
   0x00, 0x00, 0x00, 0x00 };
