#define cpu_width 15
#define cpu_height 12
static unsigned char cpu_bits[] = {
   0x00, 0x00, 0x40, 0x02, 0xf8, 0x1f, 0xf8, 0x1f, 0x1e, 0x78, 0x18, 0x18,
   0x18, 0x18, 0x1e, 0x78, 0xf8, 0x1f, 0xf8, 0x1f, 0x40, 0x02, 0x00, 0x00 };
