/* XPM */
static char * cpuu_xpm[] = {
"15 14 5 1",
" 	c None",
". 	c #000",
"@	c #aa9943",
"#	c #aa9943",
"$	c #aa9943",
"               ",
"               ",
"      #  #     ",
"   $$$$$$$$$$  ",
"   $$$$$$$$$$  ",
" @#$$      $$#@",
"   $$      $$  ",
"   $$      $$  ",
" @#$$      $$#@",
"   $$$$$$$$$$  ",
"   $$$$$$$$$$  ",
"      #  #     ",
"               ",
"               "};
