#define cpuu_width 15
#define cpuu_height 14
static unsigned char cpuu_bits[] = {
   0x00, 0x00, 0x40, 0x02, 0x40, 0x02, 0xf8, 0x1f, 0x08, 0x10, 0x0e, 0x70,
   0x08, 0x10, 0x08, 0x10, 0x0e, 0x70, 0x08, 0x10, 0xf8, 0x1f, 0x40, 0x02,
   0x40, 0x02, 0x00, 0x00 };
