#define float_width 12
#define float_height 12
static unsigned char float_bits[] = {
   0x00, 0x00, 0x00, 0x00, 0x00, 0x00, 0xfc, 0x01, 0x04, 0x01, 0xf4, 0x07,
   0x14, 0x04, 0x1c, 0x04, 0x10, 0x04, 0xf0, 0x07, 0x00, 0x00, 0x00, 0x00 };
