#define free_fs_width 14
#define free_fs_height 13
static unsigned char free_fs_bits[] = {
   0x00, 0x00, 0x00, 0x00, 0x00, 0x00, 0xf8, 0x07, 0x0c, 0x0c, 0xfe, 0x1f,
   0x02, 0x10, 0x02, 0x14, 0x02, 0x10, 0xfe, 0x1f, 0x00, 0x00, 0x00, 0x00,
   0x00, 0x00 };
