#define net_wired_width 15
#define net_wired_height 13
static unsigned char net_wired_bits[] = {
   0x00, 0x00, 0x00, 0x00, 0xc0, 0x1f, 0x40, 0x10, 0x40, 0x10, 0xfc, 0x11,
   0x04, 0x1f, 0x04, 0x11, 0x04, 0x1f, 0xfc, 0x09, 0x04, 0x0f, 0xfc, 0x01,
   0x00, 0x00 };
