#define vol_width 12
#define vol_height 13
static unsigned char vol_bits[] = {
   0x00, 0x00, 0x80, 0x00, 0xc0, 0x00, 0xe0, 0x04, 0xbe, 0x08, 0x82, 0x0a,
   0x82, 0x0a, 0x82, 0x0a, 0xbe, 0x08, 0xe0, 0x04, 0xc0, 0x00, 0x80, 0x00,
   0x00, 0x00 };
